# xmcd
#
# Track frame offsets: 
#        150
#        16085
#        35715
#        55940
#        77425
#        92645
#        110942
#        133465
#        148860
#        166745
#
# Disc length: 2455 seconds
#
# Revision: 1
# Processed by: cddbd v1.5.1PL2 Copyright (c) Steve Scherf et al.
# Submitted via: ExactAudioCopy v0.95a5
#
DISCID=8709950a
DTITLE=Various Artist - Winning Combinations: Brothers Johnson, Dazz Band
DYEAR=2000
DGENRE=R&B
TTITLE0=The Brothers Johnson - Ain't We Funkin' Now
TTITLE1=The Brothers Johnson - You Keep Me Coming Back
TTITLE2=The Brothers Johnson - Land of Ladies
TTITLE3=The Brothers Johnson - I'll Be Good to You
TTITLE4=The Brothers Johnson - Hot Mama
TTITLE5=Dazz Band - Let It Whip
TTITLE6=Dazz Band - Shake It Up
TTITLE7=Dazz Band - Invitation to Love
TTITLE8=Dazz Band - Let It All Blow
TTITLE9=Dazz Band - Do It Again
EXTD=
EXTT0=
EXTT1=
EXTT2=
EXTT3=
EXTT4=
EXTT5=
EXTT6=
EXTT7=
EXTT8=
EXTT9=
PLAYORDER=
